<?xml version="1.0" standalone="no"?><!DOCTYPE svg PUBLIC "-//W3C//DTD SVG 1.1//EN" "http://www.w3.org/Graphics/SVG/1.1/DTD/svg11.dtd"><svg t="1624350899232" class="icon" viewBox="0 0 1024 1024" version="1.1" xmlns="http://www.w3.org/2000/svg" p-id="2812" xmlns:xlink="http://www.w3.org/1999/xlink" width="200" height="200"><defs><style type="text/css"></style></defs><path d="M719.99 934.69H305.26c-52.83 0-83.75-8.38-103.39-28.02s-28.02-50.57-28.02-103.4V222.65c0-52.83 8.38-83.75 28.02-103.4 19.64-19.64 50.56-28.03 103.39-28.03h414.73c52.83 0 83.75 8.38 103.39 28.03 19.64 19.64 28.03 50.57 28.03 103.4v580.63c0 52.83-8.38 83.75-28.03 103.4-19.64 19.63-50.56 28.01-103.39 28.01zM305.26 105.23c-48.76 0-76.73 7.16-93.49 23.92s-23.92 44.73-23.92 93.5v580.63c0 48.77 7.15 76.73 23.92 93.5 16.77 16.77 44.73 23.92 93.49 23.92h414.73c48.77 0 76.73-7.15 93.5-23.92 16.77-16.77 23.92-44.73 23.92-93.5V222.65c0-48.77-7.16-76.73-23.92-93.5s-44.73-23.92-93.5-23.92H305.26z" p-id="2813"></path><path d="M637.04 513.46a0.53 0.53 0 0 1-0.27-0.08c-40.06-26.06-83.17-76.24-83.17-124.84 0-46.01 37.43-83.45 83.44-83.45s83.45 37.43 83.45 83.45c0 48.6-43.12 98.78-83.18 124.84-0.08 0.05-0.17 0.08-0.27 0.08z m0-207.37c-45.46 0-82.44 36.99-82.44 82.45 0 48.12 42.68 97.86 82.44 123.82 39.76-25.96 82.45-75.7 82.45-123.82 0-45.46-36.99-82.45-82.45-82.45z" p-id="2814"></path><path d="M637.04 434.01c-25.07 0-45.47-20.4-45.47-45.47s20.4-45.47 45.47-45.47c25.08 0 45.47 20.4 45.47 45.47 0.01 25.07-20.39 45.47-45.47 45.47z m0-82.94c-20.66 0-37.47 16.81-37.47 37.47s16.81 37.47 37.47 37.47 37.47-16.81 37.47-37.47c0.01-20.66-16.8-37.47-37.47-37.47zM496.32 759.74c-3.77 0-7.97-0.77-12.57-2.3l-91.45-30.49c-6.12-2.04-9.09-6.16-9.09-12.61V234.15c0-6.73 2.66-10.05 4.89-11.66 2.23-1.61 6.23-3.08 12.61-0.95l99.32 33.11c12.33 4.11 17.6 11.41 17.6 24.42v453.96c0 10.95-3.06 18.71-9.11 23.07-3.37 2.43-7.45 3.64-12.2 3.64zM394.73 230.47c-0.46 0-0.71 0.08-0.79 0.14-0.19 0.14-0.74 1.08-0.74 3.55v480.19c0 2.2 0.17 2.43 2.25 3.13l91.45 30.49c4.93 1.64 11.67 2.98 15.76 0.03 4.1-2.95 4.95-9.76 4.95-14.96V279.07c0-8.69-2.51-12.18-10.76-14.93l-99.32-33.11c-1.3-0.44-2.21-0.56-2.8-0.56z" p-id="2815"></path><path d="M270.38 801.96c-2.29 0-4.06-0.66-5.21-1.27-2.38-1.28-6.38-4.65-6.38-12.91V316.69c0-9.65 3.43-16.06 11.46-21.41l102.29-68.19c6.87-4.58 11.9-3.13 14.28-1.85 2.39 1.28 6.39 4.65 6.39 12.91v477.74c0 4.85-1.88 8.37-5.92 11.06l-107.83 71.89c-3.56 2.37-6.62 3.12-9.08 3.12z m111.26-567.99c-0.68 0-1.93 0.35-3.56 1.44L275.79 303.6c-5.24 3.49-7 6.8-7 13.09v471.08c0 2.55 0.68 3.87 1.1 4.09 0.43 0.23 1.9 0.06 4.02-1.35l107.83-71.89c1.26-0.84 1.47-1.22 1.47-2.74V238.15c0-2.55-0.68-3.87-1.1-4.1-0.11-0.05-0.26-0.08-0.47-0.08zM528.93 759.74c-4.75 0-8.83-1.21-12.2-3.64-6.04-4.36-9.11-12.12-9.11-23.07V279.07c0-13 5.26-20.31 17.6-24.42l99.32-33.11c6.38-2.13 10.38-0.66 12.61 0.95 2.23 1.61 4.89 4.94 4.89 11.66v71.44c0 2.76-2.24 5-5 5-42.98 0-77.94 34.97-77.94 77.95 0 46.55 41.82 94.95 80.67 120.23 1.42 0.92 2.27 2.5 2.27 4.19v201.39c0 6.45-2.97 10.57-9.09 12.61l-91.45 30.49c-4.6 1.53-8.79 2.29-12.57 2.29z m101.58-529.27c-0.58 0-1.5 0.12-2.81 0.56l-99.32 33.11c-8.25 2.75-10.76 6.24-10.76 14.93v453.96c0 5.19 0.86 12.01 4.95 14.96 4.09 2.95 10.83 1.61 15.76-0.03l91.45-30.49c2.08-0.69 2.25-0.93 2.25-3.13v-198.7c-40.38-27.1-82.94-77.76-82.94-127.11 0-46.82 36.77-85.21 82.94-87.81v-66.58c0-2.46-0.54-3.41-0.74-3.55-0.07-0.05-0.32-0.12-0.78-0.12z" p-id="2816"></path><path d="M754.87 801.96c-2.46 0-5.52-0.75-9.07-3.12l-107.83-71.89c-4.04-2.69-5.92-6.21-5.92-11.06V512.96c0-1.69 0.86-3.27 2.27-4.19 38.86-25.27 80.67-73.68 80.67-120.23 0-42.98-34.97-77.95-77.95-77.95-2.76 0-5-2.24-5-5v-67.45c0-8.26 4-11.64 6.39-12.91 2.39-1.28 7.41-2.73 14.28 1.85L755 295.28c8.03 5.36 11.46 11.76 11.46 21.41v471.08c0 8.26-4 11.63-6.38 12.91-1.15 0.62-2.92 1.28-5.21 1.28zM642.04 515.65v200.24c0 1.52 0.21 1.9 1.46 2.74l107.83 71.89c2.12 1.42 3.59 1.58 4.02 1.35 0.43-0.23 1.1-1.54 1.1-4.09V316.69c0-6.3-1.77-9.6-7.01-13.09l-102.29-68.19c-2.12-1.42-3.59-1.58-4.02-1.35-0.43 0.23-1.1 1.54-1.1 4.1v62.59c46.18 2.6 82.95 40.99 82.95 87.81 0.01 49.33-42.55 99.99-82.94 127.09z" p-id="2817"></path></svg>